<?xml version="1.0" encoding="UTF-8" standalone="no"?>
<!DOCTYPE svg PUBLIC "-//W3C//DTD SVG 1.1//EN" "http://www.w3.org/Graphics/SVG/1.1/DTD/svg11.dtd">
<svg version="1.1" xmlns="http://www.w3.org/2000/svg" xmlns:xlink="http://www.w3.org/1999/xlink" preserveAspectRatio="xMidYMid meet" viewBox="0 0 920 420" width="920" height="420" opacity="0.5"><defs><path d="M131.17 302.26C131.17 324.34 113.24 342.26 91.17 342.26C69.09 342.26 51.17 324.34 51.17 302.26C51.17 280.18 69.09 262.26 91.17 262.26C113.24 262.26 131.17 280.18 131.17 302.26Z" id="p36UhJpjCG"></path><path d="M230.4 240.66C230.4 262.74 212.48 280.66 190.4 280.66C168.32 280.66 150.4 262.74 150.4 240.66C150.4 218.58 168.32 200.66 190.4 200.66C212.48 200.66 230.4 218.58 230.4 240.66Z" id="b1dUquT6l7"></path><path d="M352.1 200.66C352.1 222.74 334.18 240.66 312.1 240.66C290.03 240.66 272.1 222.74 272.1 200.66C272.1 178.58 290.03 160.66 312.1 160.66C334.18 160.66 352.1 178.58 352.1 200.66Z" id="a4KpP9VDW2"></path><path d="M490.27 186.27C490.27 208.35 472.35 226.27 450.27 226.27C428.2 226.27 410.27 208.35 410.27 186.27C410.27 164.2 428.2 146.27 450.27 146.27C472.35 146.27 490.27 164.2 490.27 186.27Z" id="c2ujhQe80A"></path><path d="M768.86 292.44C770.04 314.48 788.89 331.42 810.94 330.24C832.98 329.06 849.92 310.2 848.74 288.16C847.56 266.11 828.7 249.17 806.66 250.35C784.61 251.53 767.67 270.39 768.86 292.44Z" id="a1SD9DqPI"></path><path d="M542.8 202.8C543.98 224.85 562.83 241.79 584.88 240.6C606.92 239.42 623.86 220.57 622.68 198.52C621.5 176.48 602.64 159.54 580.6 160.72C558.55 161.9 541.62 180.76 542.8 202.8Z" id="b5ch8U47L"></path><path d="M667.65 236.17C668.83 258.22 687.69 275.15 709.73 273.97C731.78 272.79 748.71 253.94 747.53 231.89C746.35 209.85 727.5 192.91 705.45 194.09C683.41 195.27 666.47 214.13 667.65 236.17Z" id="d57v5HqfwI"></path></defs><g><g><g><use xlink:href="#p36UhJpjCG" opacity="1" fill="#c91035" fill-opacity="1"></use></g><g><use xlink:href="#b1dUquT6l7" opacity="1" fill="#c91035" fill-opacity="1"></use></g><g><use xlink:href="#a4KpP9VDW2" opacity="1" fill="#c91035" fill-opacity="1"></use></g><g><use xlink:href="#c2ujhQe80A" opacity="1" fill="#c91035" fill-opacity="1"></use></g><g><use xlink:href="#a1SD9DqPI" opacity="1" fill="#c91035" fill-opacity="1"></use></g><g><use xlink:href="#b5ch8U47L" opacity="1" fill="#c91035" fill-opacity="1"></use></g><g><use xlink:href="#d57v5HqfwI" opacity="1" fill="#c91035" fill-opacity="1"></use></g></g></g></svg>