<svg width="123" height="123" viewBox="0 0 123 123" fill="none" xmlns="http://www.w3.org/2000/svg">
<path d="M87.5884 65.3825C87.5884 66.0323 87.3323 66.6555 86.8763 67.115C86.4204 67.5744 85.802 67.8326 85.1573 67.8326C84.5125 67.8326 83.8941 67.5744 83.4382 67.115C82.9823 66.6555 82.7261 66.0323 82.7261 65.3825V43.494C82.7261 42.8442 82.9823 42.221 83.4382 41.7615C83.8941 41.302 84.5125 41.0439 85.1573 41.0439C85.802 41.0439 86.4204 41.302 86.8763 41.7615C87.3323 42.221 87.5884 42.8442 87.5884 43.494V65.3825ZM86.7445 80.5486C86.4231 80.8726 77.3816 88.4657 60.8056 88.4657C44.2296 88.4657 35.2485 80.9131 34.8667 80.5891C34.6261 80.3846 34.428 80.1344 34.2836 79.8526C34.1392 79.5708 34.0514 79.2631 34.0253 78.9471C33.9991 78.631 34.0352 78.3129 34.1313 78.0109C34.2274 77.709 34.3817 77.4291 34.5854 77.1873C35.005 76.698 35.5996 76.3958 36.2394 76.3465C36.8793 76.2972 37.5125 76.5048 38.0011 76.9241C38.1417 77.0254 46.2187 83.6263 60.7855 83.6263C75.3523 83.6263 83.4896 76.9849 83.57 76.9241C84.064 76.5086 84.6993 76.3036 85.3409 76.3528C85.9825 76.402 86.5797 76.7013 87.0057 77.1873C87.4156 77.6693 87.6202 78.2949 87.5751 78.928C87.5299 79.5612 87.2387 80.1508 86.7646 80.5688L86.7445 80.5486ZM34.0027 43.494C34.0391 42.8421 34.33 42.2313 34.8119 41.7949C35.2938 41.3586 35.9275 41.1323 36.5745 41.1654C37.1743 41.1997 37.7403 41.4567 38.1633 41.8866C38.5862 42.3166 38.8362 42.8892 38.865 43.494V65.342C38.865 65.9918 38.6089 66.615 38.153 67.0745C37.697 67.5339 37.0787 67.7921 36.4339 67.7921C35.7891 67.7921 35.1707 67.5339 34.7148 67.0745C34.2589 66.615 34.0027 65.9918 34.0027 65.342V43.494ZM46.1987 38.6343C46.235 37.9825 46.5259 37.3716 47.0078 36.9353C47.4897 36.499 48.1234 36.2726 48.7704 36.3058C49.3703 36.3401 49.9362 36.597 50.3592 37.027C50.7821 37.457 51.0321 38.0296 51.0609 38.6343V71.0318C51.0609 71.6816 50.8048 72.3048 50.3489 72.7643C49.8929 73.2237 49.2746 73.4819 48.6298 73.4819C47.985 73.4819 47.3666 73.2237 46.9107 72.7643C46.4548 72.3048 46.1987 71.6816 46.1987 71.0318V38.6343ZM58.4548 37.4194C58.4548 36.7696 58.711 36.1465 59.1669 35.687C59.6228 35.2275 60.2412 34.9694 60.886 34.9694C61.5308 34.9694 62.1491 35.2275 62.6051 35.687C63.061 36.1465 63.3171 36.7696 63.3171 37.4194V72.6517C63.3171 73.3015 63.061 73.9247 62.6051 74.3841C62.1491 74.8436 61.5308 75.1018 60.886 75.1018C60.2412 75.1018 59.6228 74.8436 59.1669 74.3841C58.711 73.9247 58.4548 73.3015 58.4548 72.6517V37.4194ZM70.5101 38.6343C70.5101 37.9845 70.7662 37.3614 71.2222 36.9019C71.6781 36.4424 72.2965 36.1843 72.9413 36.1843C73.586 36.1843 74.2044 36.4424 74.6603 36.9019C75.1163 37.3614 75.3724 37.9845 75.3724 38.6343V71.0318C75.3724 71.6816 75.1163 72.3048 74.6603 72.7643C74.2044 73.2237 73.586 73.4819 72.9413 73.4819C72.2965 73.4819 71.6781 73.2237 71.2222 72.7643C70.7662 72.3048 70.5101 71.6816 70.5101 71.0318V38.6343ZM88.2514 25.2704H33.4402C32.2459 25.2624 31.0617 25.4919 29.9555 25.9457C28.8494 26.3995 27.8429 27.0688 26.9937 27.9152C26.1445 28.7615 25.4693 29.7684 25.0068 30.8781C24.5443 31.9878 24.3035 33.1786 24.2982 34.3822V89.0529C24.3035 90.2565 24.5443 91.4473 25.0068 92.557C25.4693 93.6667 26.1445 94.6736 26.9937 95.5199C27.8429 96.3663 28.8494 97.0356 29.9555 97.4894C31.0617 97.9432 32.2459 98.1727 33.4402 98.1647H88.2514C89.4441 98.1727 90.6266 97.9439 91.7315 97.4913C92.8363 97.0388 93.8419 96.3713 94.6908 95.5271C95.5398 94.6828 96.2153 93.6784 96.679 92.571C97.1427 91.4636 97.3855 90.2751 97.3934 89.0732V34.3822C97.3881 33.1803 97.148 31.9912 96.6867 30.8828C96.2254 29.7744 95.5521 28.7685 94.705 27.9224C93.858 27.0762 92.8539 26.4066 91.75 25.9515C90.6461 25.4965 89.4642 25.265 88.2715 25.2704" fill="#95bce9"/>
</svg>
