<svg id="Layer_1" data-name="Layer 1" xmlns="http://www.w3.org/2000/svg" viewBox="0 0 661.57 962.67"><defs><style>.cls-1{fill:#01427a;}.cls-2{fill:#0289ce;}.cls-3{fill:#fefefe;}.cls-4{fill:#fcfcfd;}.cls-5{fill:#fdfdfe;}.cls-6{fill:#f9fafb;}.cls-7{fill:#282424;}.cls-8{fill:#019d4a;}.cls-9{fill:#02437a;}.cls-10{fill:#c4a743;}.cls-11{fill:#50b246;}.cls-12{fill:#e4c320;}.cls-13{fill:#6abb44;}.cls-14{fill:#61b745;}.cls-15{fill:#d0b13a;}.cls-16{fill:#e3a714;}.cls-17{fill:#dcbc2d;}</style></defs><title>ucd-crest-web</title><path class="cls-1" d="M0,595Q0,429,0,263H654.72c1.62,0,3.25,0,4.87,0q0,158.43-.08,316.86c0,10.77-1.34,21.55-2.06,32.32-15.14,0-30.28-.08-45.42-.06-10.54,0-21.08.14-31.61.21-6.18-.07-12.36-.21-18.54-.2-14.38,0-28.77.14-43.15.22l-4.95-.06-37.94-.09a100,100,0,0,0-36.67-24.39l-19.46-6.43-15.46-3.22-14.65-1.63-8.06-.15c-9.81.65-19.79.39-29.38,2.17-13.89,2.57-27.5,6.62-41.23,10l-34.69,1.44c-1.3-.26-2.62-.45-3.9-.79q-13.9-3.65-27.79-7.34c-6-4-12.14-7.86-18-12.13-2-1.45-3.36-1.8-5.28-.47-5.4,3.74-11.23,7-16.14,11.29-8.17,7.17-14.61,15.75-17.49,26.53L185.31,612l-5.08.27-1.75,0-38.74.1-5,.06-60.88,0-71.77-.14c-.21-1.86-.39-3.71-.62-5.57C1,602.8.5,598.93,0,595ZM432.2,442.45c1.26.1,2.19.24,3.11.24,21.23,0,42.46.27,63.69-.11a153.29,153.29,0,0,0,27.34-2.72c24.77-5,42.8-18.69,51.57-43,6.19-17.15,7.08-34.91,3.91-52.73-3.72-20.9-13.9-37.58-33.51-47.37-13.86-6.91-28.81-9-44-9.12-22.58-.24-45.16-.06-67.74-.06h-4.28v5.83c11.78,2.53,15,6.57,15,18.81q0,38.33,0,76.67c0,10.41.08,20.82,0,31.24-.1,9.19-3.62,13.37-12.41,15.22a25.57,25.57,0,0,0-2.57.82ZM177,293.61c7.29,1.66,8.73,3.39,9.09,10.8,0,.81,0,1.62,0,2.44,0,25.57.2,51.15-.12,76.71a100.44,100.44,0,0,1-2.75,22.84c-3.17,12.7-10.64,22.39-24.07,25.31-14,3-27.33,1.81-37.56-9.87-7.4-8.45-9.92-18.88-10.27-29.69-.56-17.16-.56-34.34-.63-51.51,0-12-.07-24.08.36-36.1.3-8.25,1.18-8.88,9-11.06v-5.55H76.79v5.77c6.94,1.09,8.47,2.69,9.06,9.41.13,1.48.1,3,.1,4.46,0,26.11-.11,52.23.09,78.34a110.71,110.71,0,0,0,1.8,19.33c3.45,18.56,13.93,31.6,32.28,36.94a98,98,0,0,0,58.71-.65c14.27-4.64,24.2-14.39,28.27-28.92a98.85,98.85,0,0,0,3.8-24.69c.47-27.19.13-54.39.22-81.58,0-9.54.55-10,9-13.05v-5.44H177ZM387.33,319c0-7-.24-13.89.09-20.74.19-3.85-1-5.69-4.73-6.93-23.92-8-48.12-9.41-72.61-3.36-24.33,6-40.63,21.23-48.79,44.76-8.32,24-7.65,48.11,1.34,71.78,7.15,18.84,20.51,31.61,40.11,37,25.72,7.07,51.24,5.87,76.54-2.6,6.21-2.08,10.18-4.92,9.09-12.13-.22-1.43.26-2.95.36-4.43.37-5.59.71-11.17,1.06-16.84h-6.15c-6.35,15.82-13.53,22.13-29.42,25.24-4.87,1-9.92,1.07-14.9,1.39-22.67,1.41-40.33-9-48.76-30-10.43-26-9.83-52.34,1.48-78,6.53-14.79,18.35-23.77,34.56-26.32a79.84,79.84,0,0,1,32.93,1.73c10.58,2.77,19.31,7.8,22.1,19.46ZM340,504.18c2.36-3.08,5.39-5.66,6.66-8.94,3.89-10-2-20-13.52-21-14.47-1.29-29.1-.84-43.66-1.11-.19,0-.39.34-.5.44v63.46a4.14,4.14,0,0,0,1,.31c8.51,0,17,.13,25.53,0a145,145,0,0,0,17.36-.85c9.32-1.26,15.83-7.1,17-14.43C351.23,513.7,348.24,508.51,340,504.18ZM501.7,537.32V488.25c1.69,2.17,2.77,3.53,3.83,4.91q16.2,21,32.44,42c.74,1,2,2.08,3,2.13,4.55.23,9.12.1,13.81.1V473.33H542.21v49c-12.36-16-24.12-31.34-36-46.57-.9-1.16-2.36-2.53-3.64-2.62-4.54-.32-9.12-.12-13.63-.12v64.33ZM105.18,472.87v63.78c13.48,0,26.77.83,39.91-.24,12.54-1,22.94-7,26.72-20.1,1.35-4.68,1.41-9.9,1.19-14.84-.6-13.44-7.24-21.9-20.1-25.78C137.29,471,121.24,473.77,105.18,472.87Zm145.57.24c0,1.64,0,3,0,4.29,0,11.63.06,23.27,0,34.9-.05,8.06-4.71,14.2-12.46,15.83a35.15,35.15,0,0,1-11.23.53c-11-1.32-15.87-7.07-15.88-18.13q0-15.22,0-30.44V473.3h-12.4c0,13.94-.38,27.6.12,41.23.41,11,6.48,18.81,16.9,21.88a59.93,59.93,0,0,0,20.71,2.32c16-1.13,27.64-11.21,26.88-29.62-.44-10.67-.08-21.37-.08-32.06,0-1.29,0-2.57,0-4ZM392.12,527.4V473.27H379.84v63.89h50.23V527.4Zm71.35-54.17H451.4v64h12.07Z"/><path class="cls-2" d="M659.59,263.06c-1.62,0-3.25,0-4.87,0H0q0-64.54,0-129.08c10.94-5.57,21.81-11.3,32.83-16.7,91-44.58,187-73.46,286.34-92.07C362.5,17.05,406.09,10.62,450,7.23c34.34-2.65,68.75-4.89,103.17-6.08,26.06-.9,52.19.05,78.28.38,9.27.12,18.53.82,28.1,1.28Zm-484.5-21.22-4.66-54.71c7.4.64,3.71-5.09,5.26-8.42,3.23.61,3.65-1.42,3.79-4.28.37-7.28-6.06-2.6-8.67-5.25,0-1.74,0-3.76,0-5.77,0-5.91,0-5.91-5.7-5.92a59.06,59.06,0,0,1-6.48,0c-3.82-.43-5.54.88-5.08,4.92a66.72,66.72,0,0,1,.05,7.45H136.7c0-3.15,0-6,0-8.79,0-2.56-1.08-3.66-3.69-3.56-3.37.13-6.76.11-10.13,0-2.63-.08-3.66,1.11-3.58,3.66.09,2.91,0,5.83,0,8.78H102.76c-.4-4.19.63-10-1.5-11.61-2.69-2-8-.69-12.14-.81-.14,0-.27,0-.41,0-2.68-.21-3.59,1.14-3.49,3.67.11,2.91,0,5.82,0,8.13-3,2.17-7.61-1.57-8.39,3.73-.45,3.08-.46,6.17,4,5.93,1.05,3.42-1.91,8.59,5.06,8.55L84.3,193.2a4.83,4.83,0,0,0-.66,1.35q-2,14.63-3.95,29.27c-.93,7.05-1.82,14.11-2.76,21.48H175.3Zm76-72.75-9.89,76.29h129l-.28-5L364,168.92c10,.81,4.54-7.19,6.72-10.81,5.19-1,5.26-1.24,5.07-7.55-.08-2.71-1.12-4-3.86-4-2.39.05-4.78,0-7.38,0,0-4.46-.12-8.38,0-12.28.12-3.2-1.32-4.37-4.36-4.31-4.73.09-9.46.12-14.19,0-2.9-.08-4.22.92-4.09,4,.17,4,0,8.08,0,12.33H319.69c0-4.19-.09-8.1,0-12,.09-3.15-1.32-4.38-4.4-4.31-4.73.11-9.46.1-14.19,0-3-.06-4.15,1.23-4.07,4.15.11,4,0,8,0,12.09H274.71c0-4.25-.13-8.16,0-12.06.14-3.2-1.19-4.32-4.32-4.2-4.45.18-8.93.23-13.38,0-3.83-.21-5.07,1.49-4.94,5,.14,3.73,0,7.46,0,11.61a54.24,54.24,0,0,0-7.77.11,4.45,4.45,0,0,0-3.14,2.31c-1.57,5.39,0,7.95,5.51,9.4a46.75,46.75,0,0,1,0,5.49C246.31,167.37,247.75,169,251.14,169.09ZM583,239.93l-6.73-80.58c6.9-1,6.88-1,6.92-8,0-1.68.15-3.36.23-5,6-.53,6-.53,6-6.12q0-.2,0-.41c0-6,0-6-5.8-6H576.7c0-5.06-.09-9.76,0-14.45.08-3.13-1.2-4.35-4.35-4.26-5.54.16-11.09.24-16.62,0-3.73-.18-4.7,1.47-4.58,4.81.16,4.54,0,9.09,0,13.57H526.09c0-4.81-.1-9.27,0-13.71.09-3.18-1-4.76-4.42-4.65-5.54.18-11.09.17-16.62,0-3.15-.09-4.39,1.06-4.27,4.25.17,4.68,0,9.37,0,14.21H475.56c0-5,0-9.68,0-14.39,0-2.81-1-4.19-4.07-4.08-5.54.19-11.09.23-16.62,0-3.74-.16-5.14,1.32-5,5,.15,4.52,0,9.06,0,13.78-3.34,0-6-.16-8.71.07-1.18.1-3.22.87-3.29,1.51a26.62,26.62,0,0,0,.15,9.18c.27,1.09,3.3,1.48,5.68,2.43a60.3,60.3,0,0,1,0,6.21c-.38,4,1.29,5.86,5.23,5.82l-11.41,86.19H583.63ZM492.53,60.38l-1-1.18C486,64,480,68.49,475,73.79c-5.52,5.8-8.71,12.9-8.26,21.3.43,7.91,7.09,15.66,14.92,17,7.08,1.19,14-3.52,16.8-11.62a75.06,75.06,0,0,0,1.81-7.75c9.26,12.93,23.38,17.56,36,2.53a54.06,54.06,0,0,0,2.08,6.36c1.89,4.07,5.08,6.77,9.69,7a10.73,10.73,0,0,0,10.54-6.22c3-5.84,2.53-11.55-1.52-16.69-2.93-3.71-3.08-7.59-1.8-11.82.29-1,.6-1.9,1.13-3.54-3.26,1.28-5.95,2.12-8.41,3.38a83.63,83.63,0,0,0-7.06,4.53c-.63-7.8-4.46-13.71-9.16-19.28-6.32-7.5-6.39-13.83-.6-21.59.49-.65.88-1.38,1.32-2.07-22.73,7.82-35.45,23-35.65,47.64C490.38,76.9,489.22,70.46,492.53,60.38ZM297.26,111.24c3.74,6.16,9.11,8.83,15.54,9.54,7.05.78,11.27-4,15.7-8.39.56,1.61.94,3,1.54,4.39,2.44,5.52,7.3,8.34,12.16,7.15a11.76,11.76,0,0,0,9.2-12.59,20.87,20.87,0,0,0-2.49-8c-2.83-4.89-4.33-9.78-1.7-16.39-3.37,2.15-5.84,3.5-8.05,5.19s-4.09,3.7-5.45,4.95c-2.46-4.8-4.45-10-7.53-14.41-7-10-7.38-13.27-1-23.49-19.75,4.72-27.68,18.94-30.62,37.8-4-6.24-7.74-11.64-4.81-19A55.37,55.37,0,0,0,280,84.62c-8.32,7.58-14,16.42-12.06,28.41,1.37,8.36,7.05,13.64,14.53,13.64,7.66,0,12.51-4.6,14.07-13.3A17.81,17.81,0,0,1,297.26,111.24Zm-157-7.23c-14.7,4.18-22.37,13.88-23.27,29.59-4.21-5.56-3.82-10.85-1.17-16.73-6.89,3-12.11,6.78-16.07,12.07-3.42,4.56-5.41,9.61-4,15.5S102.35,155,107.92,155s9.48-3.56,10.95-10.38c.11-.5.28-1,.55-1.91,3.06,4.3,6.65,7,11.74,7.58,5.25.56,9.43-.89,12.29-5.78a28.47,28.47,0,0,0,2,3.43c2.25,2.83,4.81,5.31,8.87,4.3,3.63-.9,6.43-4.72,6.35-8.92a11,11,0,0,0-1.36-5.79c-2.81-4.1-3.58-8.26-1.51-13l-.94-.6-9.92,7.55c-1.77-3.35-3.4-7.14-5.63-10.53C137.66,115.48,136.13,110.07,140.24,104Z"/><path class="cls-3" d="M659.59,263.06V2.81c-9.57-.45-18.83-1.16-28.1-1.28-26.09-.33-52.22-1.28-78.28-.38C518.79,2.34,484.38,4.58,450,7.23c-43.95,3.39-87.54,9.82-130.86,17.94C219.85,43.78,123.81,72.66,32.83,117.24c-11,5.4-21.89,11.13-32.83,16.7Q0,67,0,0H661.57V962.67H0Q0,778.93,0,595c.5,3.88,1,7.76,1.5,11.64.23,1.85.42,3.71.62,5.57.15,2.42.19,4.85.47,7.25,5.21,45.92,17,90,37.49,131.54,9.13,18.49,19.22,36.46,32.15,52.66.57.91,1.07,1.86,1.71,2.72a347.67,347.67,0,0,0,41,45.91c6.4,6,13.18,11.51,19.78,17.25l10.47,8.48,16.26,11.72,18,12L207,917.32l36.46,17.26,41,15.51c7.66,2.44,15.39,4.71,23,7.36,21,7.37,41.57,4.67,61.89-2.89L410,940.05l36.61-16.81L466,912.54c1-.59,2-1.17,3-1.79l16.61-10.39,16.15-11.22,9.84-7.43,8.09-6.51c7.09-6.21,14.4-12.18,21.22-18.68a323.58,323.58,0,0,0,40.66-46.21c2.59-3.49,5.3-6.9,7.77-10.47a387.42,387.42,0,0,0,60.78-141.73c3.2-15.13,4.93-30.58,7.33-45.88.72-10.77,2-21.54,2.06-32.32Q659.74,421.49,659.59,263.06Z"/><path class="cls-4" d="M432.2,442.45v-6.29a25.57,25.57,0,0,1,2.57-.82c8.79-1.85,12.32-6,12.41-15.22.11-10.41,0-20.82,0-31.24q0-38.33,0-76.67c0-12.24-3.19-16.28-15-18.81v-5.83h4.28c22.58,0,45.17-.18,67.74.06,15.22.16,30.18,2.21,44,9.12,19.62,9.79,29.79,26.47,33.51,47.37,3.17,17.82,2.28,35.58-3.91,52.73-8.77,24.29-26.8,38-51.57,43A153.29,153.29,0,0,1,499,442.58c-21.22.39-42.46.13-63.69.11C434.38,442.69,433.46,442.55,432.2,442.45Zm39.74-80.93h.34c0,18.65-.2,37.29.09,55.93.13,8.36,3.7,11.75,12.15,11.88,8.89.13,17.88.23,26.66-.93,20.31-2.7,34.22-13.69,40.23-33.7,5.15-17.16,5.42-34.61,2.25-52.09-4.1-22.59-17.47-36.56-40-40.48-10.26-1.79-20.93-1.56-31.42-1.66-8.48-.08-10.28,2.18-10.29,10.78Q471.92,336.38,471.93,361.52Z"/><path class="cls-4" d="M177,293.61v-5.79H220.1v5.44c-8.43,3-8.94,3.52-9,13.05-.1,27.2.25,54.4-.22,81.58a98.85,98.85,0,0,1-3.8,24.69c-4.07,14.52-14,24.27-28.27,28.92a98,98,0,0,1-58.71.65c-18.34-5.34-28.82-18.38-32.28-36.94A110.71,110.71,0,0,1,86,385.89c-.2-26.11-.08-52.23-.09-78.34,0-1.49,0-3-.1-4.46-.59-6.71-2.12-8.32-9.06-9.41v-5.77H120v5.55c-7.78,2.18-8.67,2.81-9,11.06-.43,12-.41,24.07-.36,36.1.07,17.17.07,34.35.63,51.51.35,10.81,2.87,21.24,10.27,29.69,10.24,11.69,23.59,12.91,37.56,9.87,13.44-2.92,20.9-12.6,24.07-25.31A100.44,100.44,0,0,0,186,383.56c.33-25.57.12-51.14.12-76.71,0-.81,0-1.63,0-2.44C185.73,297,184.3,295.28,177,293.61Z"/><path class="cls-4" d="M387.33,319h-5.69c-2.79-11.65-11.52-16.68-22.1-19.46a79.84,79.84,0,0,0-32.93-1.73c-16.21,2.55-28,11.53-34.56,26.32-11.32,25.63-11.91,51.94-1.48,78,8.42,21,26.09,31.42,48.76,30,5-.31,10-.43,14.9-1.39,15.9-3.11,23.08-9.42,29.42-25.24h6.15c-.36,5.66-.7,11.25-1.06,16.84-.1,1.48-.57,3-.36,4.43,1.09,7.21-2.88,10.06-9.09,12.13-25.3,8.47-50.82,9.67-76.54,2.6-19.6-5.39-33-18.16-40.11-37-9-23.67-9.67-47.79-1.34-71.78,8.16-23.53,24.46-38.74,48.79-44.76,24.49-6.05,48.7-4.64,72.61,3.36,3.73,1.25,4.92,3.09,4.73,6.93C387.09,305.07,387.33,311.95,387.33,319Z"/><path class="cls-5" d="M340,504.18c8.25,4.33,11.24,9.52,9.86,17.92-1.21,7.32-7.72,13.16-17,14.43a145,145,0,0,1-17.36.85c-8.51.12-17,0-25.53,0a4.14,4.14,0,0,1-1-.31V473.59c.11-.1.31-.45.5-.44,14.56.27,29.19-.19,43.66,1.11,11.53,1,17.41,11,13.52,21C345.38,498.51,342.35,501.1,340,504.18ZM301.36,526.8c9.45,0,18.46.22,27.45-.11a7.86,7.86,0,0,0,7.76-6c.83-3.34.36-6.73-2.63-8.72a15.37,15.37,0,0,0-7.44-2.69c-8.31-.33-16.63-.12-25.13-.12Zm0-28.29c9,0,17.57.27,26.17-.1,5-.22,7.62-3.22,7.66-7.27s-2.23-7-7.11-7.29c-8.83-.49-17.7-.14-26.71-.14Z"/><path class="cls-6" d="M501.7,537.32H489V473c4.51,0,9.08-.19,13.63.12,1.28.09,2.74,1.46,3.64,2.62,11.85,15.24,23.61,30.54,36,46.57v-49H554.8v64.08c-4.69,0-9.26.13-13.81-.1-1.05-.05-2.28-1.18-3-2.13q-16.28-21-32.44-42c-1.06-1.38-2.14-2.74-3.83-4.91Z"/><path class="cls-6" d="M105.18,472.87c16.06.9,32.11-1.88,47.72,2.83,12.86,3.88,19.5,12.34,20.1,25.78.22,4.93.16,10.15-1.19,14.84-3.78,13.14-14.17,19.07-26.72,20.1-13.14,1.07-26.43.24-39.91.24Zm12.5,54.52c6.11,0,11.89.07,17.66,0a44.6,44.6,0,0,0,7.23-.75c10-1.85,15.72-6.9,17-15.85a42.11,42.11,0,0,0-.38-12.44c-1.19-7.22-5.76-12.27-12.86-13.39-9.36-1.47-18.9-1.72-28.62-2.52Z"/><path class="cls-5" d="M250.76,473.11H263.3c0,1.38,0,2.67,0,4,0,10.69-.36,21.39.08,32.06.76,18.41-10.9,28.49-26.88,29.62a59.93,59.93,0,0,1-20.71-2.32c-10.42-3.07-16.49-10.92-16.9-21.88-.5-13.63-.12-27.29-.12-41.23h12.4v6.78q0,15.22,0,30.44c0,11.06,4.84,16.81,15.88,18.13a35.15,35.15,0,0,0,11.23-.53c7.75-1.63,12.41-7.77,12.46-15.83.08-11.63,0-23.27,0-34.9C250.76,476.07,250.76,474.75,250.76,473.11Z"/><path class="cls-7" d="M242.71,633.51l31.15.77,37.08-6.77c5.06-1.34,10.19-2.46,15.16-4.06,18.1-5.84,36.44-10.51,55.44-12.2l4.07-.1,17.81.18,17.05,2.5,15.29,4,1,.48,1.57.36,30.14,13-1.26,3.16-5.95-1.71c-1-.79-1.86-1.91-3-2.33-9.1-3.4-18.11-7.2-27.44-9.83-8.29-2.33-17-3.32-25.45-4.9-14.65-1.83-29,.24-43.27,3.28l-3.49.8-71.44,17-41,2.34c-13-1.51-25.6-4.75-37.4-10.66L185.31,612l2.36-4.76c10.36,8.51,21.14,16.45,34,20.85C228.47,630.39,235.67,631.72,242.71,633.51Z"/><path class="cls-3" d="M392.12,527.4h38v9.76H379.84V473.27h12.28Z"/><path class="cls-3" d="M463.47,473.22v64H451.4v-64Z"/><path class="cls-8" d="M145.33,613l-5.59-.6,38.74-.1-16.11.7Z"/><path class="cls-8" d="M475.83,612.89a1.09,1.09,0,0,1,0-.62l37.94.09-3.16.6h-8.94l-17,0Z"/><path class="cls-3" d="M448.93,159.13c-3.95,0-5.61-1.86-5.23-5.82a60.3,60.3,0,0,0,0-6.21c-2.38-1-5.41-1.34-5.68-2.43a26.62,26.62,0,0,1-.15-9.18c.07-.64,2.11-1.41,3.29-1.51,2.67-.23,5.37-.07,8.71-.07,0-4.72.12-9.26,0-13.78-.12-3.63,1.27-5.11,5-5,5.53.23,11.09.2,16.62,0,3.09-.1,4.1,1.27,4.07,4.08-.05,4.71,0,9.42,0,14.39h25.29c0-4.84.13-9.53,0-14.21-.12-3.18,1.12-4.34,4.27-4.25,5.54.16,11.09.18,16.62,0,3.46-.11,4.52,1.46,4.42,4.65-.13,4.45,0,8.9,0,13.71h25.13c0-4.47.12-9,0-13.57-.11-3.34.85-5,4.58-4.81,5.53.26,11.08.18,16.62,0,3.15-.09,4.43,1.13,4.35,4.26-.12,4.69,0,9.4,0,14.45h6.91c5.8,0,5.8,0,5.8,6q0,.2,0,.41c0,5.59,0,5.59-6,6.12-.08,1.61-.22,3.29-.23,5,0,7,0,7-6.92,8L583,239.93H443.6c.85-10,1.61-19.25,2.42-28.51,1.44-16.53,2.92-33.06,4.28-49.6C450.37,161,449.41,160,448.93,159.13ZM526,214.18c0-11,.28-21.65-.1-32.29-.23-6.52-6.87-11.84-13.08-11.36a12.71,12.71,0,0,0-11.92,12.52c-.05,9.47,0,18.94,0,28.41a21.84,21.84,0,0,0,.34,2.72Z"/><path class="cls-5" d="M251.14,169.09c-3.39-.07-4.83-1.72-4.43-5.15a46.75,46.75,0,0,0,0-5.49c-5.52-1.45-7.08-4-5.51-9.4a4.45,4.45,0,0,1,3.14-2.31,54.24,54.24,0,0,1,7.77-.11c0-4.14.11-7.88,0-11.61-.13-3.55,1.11-5.24,4.94-5,4.45.25,8.92.19,13.38,0,3.13-.13,4.45,1,4.32,4.2-.17,3.9,0,7.81,0,12.06h22.37c0-4.08.08-8.09,0-12.09-.08-2.91,1.12-4.21,4.07-4.15,4.73.1,9.46.11,14.19,0,3.08-.07,4.49,1.16,4.4,4.31-.11,3.9,0,7.81,0,12h22.24c0-4.25.13-8.3,0-12.33-.13-3.06,1.19-4.06,4.09-4,4.73.13,9.46.1,14.19,0,3-.06,4.49,1.11,4.36,4.31-.15,3.91,0,7.82,0,12.28,2.6,0,5,0,7.38,0,2.75-.06,3.78,1.25,3.86,4,.19,6.31.12,6.55-5.07,7.55-2.17,3.62,3.26,11.63-6.72,10.81l6.05,71.5H246.56c1-12.26,2-24.08,3.06-35.89.93-10.76,1.93-21.52,2.77-32.29C252.47,171.23,251.58,170.14,251.14,169.09Zm46,48.32h22.28c0-9.59.29-18.88-.1-28.15-.25-6-5.2-10-11.2-9.88a10.82,10.82,0,0,0-10.91,10.32C297,198.84,297.15,208,297.15,217.41Z"/><path class="cls-4" d="M84.3,193.2l1.59-5.71c-7,0-4-5.13-5.06-8.55-4.44.24-4.43-2.85-4-5.93.78-5.3,5.41-1.56,8.39-3.73,0-2.31.09-5.23,0-8.13-.1-2.53.82-3.89,3.49-3.67.13,0,.27,0,.41,0,4.17.11,9.45-1.24,12.14.81,2.14,1.63,1.11,7.42,1.5,11.61h16.58c0-3,.07-5.87,0-8.78-.08-2.55,1-3.74,3.58-3.66,3.37.1,6.76.12,10.13,0,2.6-.1,3.73,1,3.69,3.56-.05,2.82,0,5.64,0,8.79h16.88a66.72,66.72,0,0,0-.05-7.45c-.45-4,1.26-5.34,5.08-4.92a59.06,59.06,0,0,0,6.48,0c5.7,0,5.7,0,5.7,5.92,0,2,0,4,0,5.77,2.61,2.66,9-2,8.67,5.25-.15,2.87-.57,4.9-3.79,4.28-1.55,3.33,2.14,9.06-5.26,8.42l4.66,54.71H80.94c.82-9.55,1.68-18.41,2.31-27.29C83.75,207.44,84,200.32,84.3,193.2ZM136.47,224c0-7.23.13-14,0-20.73a8.5,8.5,0,0,0-7.86-8.33c-3.91-.32-8.35,2.61-8.66,6.94-.53,7.33-.14,14.73-.14,22.12Z"/><path class="cls-4" d="M492.53,60.38c-3.3,10.08-2.14,16.51,4.22,22.5.2-24.61,12.92-39.82,35.65-47.64-.44.69-.83,1.42-1.32,2.07-5.79,7.77-5.72,14.1.6,21.59,4.7,5.58,8.52,11.48,9.16,19.28a83.63,83.63,0,0,1,7.06-4.53c2.47-1.27,5.16-2.1,8.41-3.38-.52,1.64-.84,2.59-1.13,3.54-1.28,4.22-1.13,8.11,1.8,11.82,4.06,5.13,4.5,10.85,1.52,16.69A10.73,10.73,0,0,1,548,108.54c-4.61-.18-7.8-2.88-9.69-7a54.06,54.06,0,0,1-2.08-6.36c-12.58,15-26.7,10.4-36-2.53a75.06,75.06,0,0,1-1.81,7.75c-2.79,8.1-9.72,12.8-16.8,11.62-7.83-1.31-14.49-9.06-14.92-17-.45-8.4,2.74-15.5,8.26-21.3,5-5.31,11-9.76,16.54-14.59ZM520,56.47c-5.87,4.95-8.63,11.5-9.25,18.69a39.87,39.87,0,0,0,1.41,13.79c.94,3.39,4.19,5.36,8.07,4.39,3.66-.92,5.27-3.74,5.07-7.32-.16-2.78-.29-5.85-1.5-8.24A37.58,37.58,0,0,1,520,56.47ZM484.18,78.23c-2.19,4.71-3.88,8.64-5.82,12.43-1.71,3.33-1.58,7.79.72,10.21,1.92,2,4.14,2.89,6.91,1.57,3.06-1.46,4.76-5.13,4.16-9.26a3.39,3.39,0,0,0-.17-.79C488,87.62,486.08,82.86,484.18,78.23Zm64,4.82c-3,2.48-3.91,6.09-3.36,9.88.3,2.05,1.77,4,2.95,5.81.19.29,2.32-.07,2.38-.39.47-2.14,1.1-4.42.76-6.5C550.46,88.88,549.19,86,548.22,83Z"/><path class="cls-4" d="M297.26,111.24a17.81,17.81,0,0,0-.77,2.14c-1.56,8.7-6.41,13.3-14.07,13.3-7.48,0-13.16-5.28-14.53-13.64-2-12,3.74-20.84,12.06-28.41A55.37,55.37,0,0,1,289.77,78c-2.93,7.33.81,12.73,4.81,19,2.94-18.86,10.87-33.08,30.62-37.8-6.4,10.22-6,13.48,1,23.49,3.08,4.42,5.06,9.6,7.53,14.41,1.36-1.25,3.27-3.28,5.45-4.95s4.68-3,8.05-5.19c-2.63,6.61-1.12,11.5,1.7,16.39a20.87,20.87,0,0,1,2.49,8,11.76,11.76,0,0,1-9.2,12.59c-4.86,1.19-9.72-1.64-12.16-7.15-.6-1.34-1-2.78-1.54-4.39-4.43,4.41-8.64,9.17-15.7,8.39C306.37,120.06,301,117.4,297.26,111.24Zm15.11-32.61a30.39,30.39,0,0,0-7,19,25.68,25.68,0,0,0,1.83,9.72c1.29,3.27,4.29,4.81,7.95,3.94,3.44-.81,4.82-3.57,4.67-6.67A40.82,40.82,0,0,0,318,94.87C316.31,89.42,314.27,84.08,312.38,78.63Zm-29,18.2c-1.79,3.82-3,6.69-4.47,9.46-1.56,3-2.23,6.06.32,8.53a6.37,6.37,0,0,0,5.23,1.43c3.62-1,4.35-4.54,3.57-7.59C287,104.64,285,100.85,283.35,96.83Zm57.17,2.94c-3.38,3.71-4.52,8.88-2.35,12.37.65,1,2.23,1.52,3.38,2.25.61-1.09,1.57-2.14,1.75-3.3a10.23,10.23,0,0,0-.61-3.9C342,104.76,341.28,102.35,340.52,99.77Z"/><path class="cls-6" d="M140.24,104c-4.12,6.06-2.59,11.48,1.06,17,2.24,3.39,3.87,7.17,5.63,10.53l9.92-7.55.94.6c-2.08,4.72-1.3,8.89,1.51,13a11,11,0,0,1,1.36,5.79c.08,4.2-2.73,8-6.35,8.92-4.07,1-6.62-1.46-8.87-4.3a28.47,28.47,0,0,1-2-3.43c-2.86,4.89-7,6.34-12.29,5.78-5.1-.54-8.68-3.28-11.74-7.58-.27.93-.44,1.41-.55,1.91-1.47,6.82-5.26,10.41-10.95,10.38s-10.83-4.64-12.22-10.6.62-10.94,4-15.5c4-5.29,9.18-9.06,16.07-12.07-2.65,5.88-3,11.17,1.17,16.73C117.88,117.89,125.55,108.19,140.24,104Zm-8.67,14.78a18,18,0,0,0-4.69,13.85c.19,2.43,2.14,4.86,3.73,7,.36.47,3.58-.21,3.73-.8a18.6,18.6,0,0,0,.64-7.59C134.24,127.06,132.79,123.06,131.57,118.78ZM108.14,132c-1.29,2.78-2.63,4.82-3.14,7.05a13.87,13.87,0,0,0,.1,6.66c.19.67,4,1.28,4.31.79,1.12-1.86,2.22-4.29,1.94-6.31C111,137.47,109.32,134.88,108.14,132Zm44.18,2.17-1.12-.13c-.36,2.77-1,5.55-.93,8.3,0,1.08,1.87,2.09,2.88,3.13.47-1.39,1.46-2.86,1.28-4.15A46.32,46.32,0,0,0,152.32,134.22Z"/><path class="cls-7" d="M448.93,159.13c.48.9,1.44,1.83,1.37,2.69-1.35,16.54-2.84,33.07-4.28,49.6-.8,9.26-1.57,18.52-2.42,28.51H583l.61,5.39H437.52Z"/><path class="cls-7" d="M251.14,169.09c.44,1.05,1.34,2.14,1.26,3.15-.83,10.77-1.84,21.53-2.77,32.29-1,11.82-2,23.63-3.06,35.89H370l.28,5h-129Z"/><path class="cls-7" d="M84.3,193.2c-.34,7.12-.55,14.24-1.05,21.35-.63,8.88-1.49,17.74-2.31,27.29h94.15l.2,3.46H76.93c.95-7.37,1.83-14.43,2.76-21.48q1.93-14.64,3.95-29.27A4.83,4.83,0,0,1,84.3,193.2Z"/><path class="cls-9" d="M471.93,361.52q0-25.14,0-50.28c0-8.6,1.8-10.86,10.29-10.78,10.49.1,21.16-.13,31.42,1.66,22.53,3.93,35.91,17.9,40,40.48,3.17,17.48,2.9,34.94-2.25,52.09-6,20-19.92,31-40.23,33.7-8.78,1.17-17.77,1.06-26.66.93-8.45-.12-12-3.51-12.15-11.88-.29-18.64-.09-37.29-.09-55.93Z"/><path class="cls-7" d="M286.6,887.18l-42.17-42.37c-8.05-11.81-16.34-23.47-24.06-35.49-4.14-6.44-7.29-13.51-10.89-20.29-4.7-13.19-10-26.22-14-39.62-5.66-19.05-8.08-38.7-9-58.59-.85-17.46.29-34.77,1.9-52.09a42.64,42.64,0,0,1,1-4.74l4.41,3.38-.42,5.58-.86,12.19-.13,10.59-.13,9.59.07.09V679l.06,2.89,3.17,37.33,6,30,8,24.38,11.24,25.21a23.25,23.25,0,0,0,.9,2.22c14.89,28.29,34.76,52.64,58.47,73.94A349.15,349.15,0,0,0,340,918.45l5,3-1.32,5A436.32,436.32,0,0,1,286.6,887.18Z"/><path class="cls-9" d="M301.36,526.8V509.12c8.49,0,16.82-.21,25.13.12a15.37,15.37,0,0,1,7.44,2.69c3,2,3.46,5.38,2.63,8.72a7.86,7.86,0,0,1-7.76,6C319.81,527,310.81,526.8,301.36,526.8Z"/><path class="cls-9" d="M301.34,498.51v-14.8c9,0,17.89-.35,26.71.14,4.88.27,7.16,3.31,7.11,7.29s-2.66,7.05-7.66,7.27C318.91,498.78,310.29,498.51,301.34,498.51Z"/><path class="cls-9" d="M117.69,527.38v-45c9.72.8,19.27,1,28.62,2.52,7.1,1.12,11.67,6.16,12.86,13.39a42.11,42.11,0,0,1,.38,12.44c-1.24,8.95-6.94,14-17,15.85a44.6,44.6,0,0,1-7.23.75C129.58,527.46,123.8,527.38,117.69,527.38Z"/><path class="cls-10" d="M435.77,617.83l1,.48Z"/><path class="cls-2" d="M526,214.18H501.24a21.84,21.84,0,0,1-.34-2.72c0-9.47-.05-18.94,0-28.41a12.71,12.71,0,0,1,11.92-12.52c6.21-.48,12.85,4.84,13.08,11.36C526.28,192.54,526,203.2,526,214.18Z"/><path class="cls-2" d="M297.15,217.41c0-9.42-.17-18.57.06-27.72a10.82,10.82,0,0,1,10.91-10.32c6-.08,11,3.84,11.2,9.88.39,9.27.1,18.56.1,28.15Z"/><path class="cls-2" d="M136.47,224H119.76c0-7.4-.38-14.79.14-22.12.31-4.33,4.75-7.26,8.66-6.94a8.5,8.5,0,0,1,7.86,8.33C136.6,210,136.47,216.8,136.47,224Z"/><path class="cls-2" d="M520,56.47a37.58,37.58,0,0,0,3.8,21.3c1.21,2.4,1.34,5.46,1.5,8.24.2,3.58-1.41,6.4-5.07,7.32-3.89,1-7.13-1-8.07-4.39a39.87,39.87,0,0,1-1.41-13.79C511.4,68,514.16,61.41,520,56.47Z"/><path class="cls-2" d="M484.18,78.23c1.9,4.63,3.85,9.39,5.8,14.16a3.39,3.39,0,0,1,.17.79c.6,4.13-1.1,7.79-4.16,9.26-2.76,1.32-5,.44-6.91-1.57-2.31-2.42-2.43-6.89-.72-10.21C480.31,86.86,482,82.93,484.18,78.23Z"/><path class="cls-2" d="M548.22,83c1,3,2.25,5.84,2.73,8.8.34,2.08-.29,4.37-.76,6.5-.07.32-2.2.68-2.38.39-1.18-1.83-2.65-3.76-2.95-5.81C544.3,89.14,545.22,85.53,548.22,83Z"/><path class="cls-2" d="M312.38,78.63c1.9,5.45,3.94,10.79,5.6,16.24a40.82,40.82,0,0,1,1.84,9.76c.15,3.1-1.23,5.86-4.67,6.67-3.66.86-6.65-.68-7.95-3.94a25.68,25.68,0,0,1-1.83-9.72A30.39,30.39,0,0,1,312.38,78.63Z"/><path class="cls-2" d="M283.35,96.83c1.63,4,3.61,7.81,4.64,11.84.78,3,0,6.54-3.57,7.59a6.37,6.37,0,0,1-5.23-1.43c-2.55-2.48-1.87-5.56-.32-8.53C280.33,103.52,281.56,100.64,283.35,96.83Z"/><path class="cls-2" d="M340.52,99.77c.76,2.59,1.51,5,2.16,7.42a10.23,10.23,0,0,1,.61,3.9c-.17,1.16-1.13,2.2-1.75,3.3-1.15-.73-2.73-1.21-3.38-2.25C336,108.65,337.14,103.48,340.52,99.77Z"/><path class="cls-2" d="M131.57,118.78c1.22,4.28,2.67,8.28,3.41,12.41a18.6,18.6,0,0,1-.64,7.59c-.15.59-3.38,1.27-3.73.8-1.59-2.09-3.53-4.52-3.73-7A18,18,0,0,1,131.57,118.78Z"/><path class="cls-2" d="M108.14,132c1.18,2.84,2.83,5.43,3.21,8.19.28,2-.82,4.45-1.94,6.31-.29.49-4.12-.11-4.31-.79a13.87,13.87,0,0,1-.1-6.66C105.5,136.87,106.85,134.83,108.14,132Z"/><path class="cls-2" d="M152.32,134.22a46.32,46.32,0,0,1,2.12,7.14c.18,1.3-.82,2.76-1.28,4.15-1-1-2.84-2-2.88-3.13-.11-2.75.57-5.53.93-8.3Z"/><path class="cls-7" d="M409,819.54l-22.46,65.91c-1.69,5-3.38,9.95-5.28,15.55l-11.85-5.49c-8.33-5.24-16.71-10.38-25-15.75-4.62-3-4.51-3.18-1.11-8l23.45,15.12,11.86,6.76L383.06,880l16.78-48.41c5.19-14.82,10.43-29.62,15.55-44.46,3.74-10.83,7.32-21.72,11-32.59l4.84-13.79,6.5-18.79,7.25-21,.53-1.14.48-1.5,8.16-23.49c.55-1.37,1.14-2.72,1.64-4.11q5.06-14.28,10.09-28.56c2.14.38,2.48,1.52,1.77,3.48-1.27,3.55-2.33,7.18-3.48,10.78l-18.5,55.16-.65,1.2-.18.8q-11.33,33.27-22.65,66.55C417.7,793.22,413.36,806.39,409,819.54Z"/><path class="cls-7" d="M308.08,843.29c-2.52-3.8-4.92-7.68-7.6-11.36-2.26-3.09-1.92-5.62.94-8a151.78,151.78,0,0,0,26.34,33.3l2.41-5.08,15.55-29.86L365.2,785l34.21-65.62,9-17.08.55-.89.27-.76,8.93-17L427.87,665l16.28-30.92c3.56.46,1.9,2.42,1.09,4-5.45,10.71-11,21.4-16.42,32.11Q414,699.24,399.18,728.32a14.24,14.24,0,0,0-.66,1.89l-28.45,55.52-20.26,39.74-21,40.22C320.26,859.59,314.53,851.1,308.08,843.29Z"/><path class="cls-11" d="M445,712.73l.65-1.2Z"/><path class="cls-12" d="M192.35,675.39q0,1.82,0,3.64Q192.36,677.21,192.35,675.39Z"/><path class="cls-4" d="M288.61,669.88q11.29,19.37,22.59,38.75,15.43,26.36,30.91,52.69l-10.65,16q-11.93-20.24-23.86-40.48-23.26-39.65-46.47-79.32c5.45-.81,10.9-1.75,16.37-2.32a4.5,4.5,0,0,1,3.33,1.94C283.59,661.28,286.05,665.61,288.61,669.88Z"/><path class="cls-7" d="M261.15,657.5q23.23,39.66,46.47,79.32,11.89,20.26,23.86,40.47l-3,4.19Q311.27,752.3,294,723.1c-3.79-6.44-7.52-12.92-11.27-19.38L260,664.5c-1.21-2.09-2.4-4.18-4-7Z"/><path class="cls-13" d="M278.47,819.84l-.38-.62A1.8,1.8,0,0,1,278.47,819.84Z"/><path class="cls-4" d="M302.31,649.32c5-1.81,10-3.74,15.15-5.32.73-.23,2.36.93,2.9,1.84q14.69,24.82,29.19,49.75l16.72,28.5-3.67,6.82-6.76,9.66Z"/><path class="cls-4" d="M361.27,636.42l29.68,50.92-10.71,16.3L340.46,635.7c4.87-1.8,9.72-3.69,14.65-5.33a3.42,3.42,0,0,1,2.85,1.07A42.86,42.86,0,0,1,361.27,636.42Z"/><path class="cls-7" d="M355.85,740.58l-2.58,3.74c-5.47-9.14-11-18.24-16.4-27.42q-18.77-31.95-37.43-64c-.41-.7-.75-1.43-1.36-2.63l4.23-1Z"/><path class="cls-7" d="M378,707.11a35.56,35.56,0,0,1-3.17-4q-11.51-19.46-22.91-39l-15.57-27.29,4-1.15,39.78,67.93Z"/><path class="cls-4" d="M379.67,624.06,397,620.84a15.23,15.23,0,0,1,2.37,2.5c5.32,9,10.57,18,15.84,27l-9.11,14.58-1.51,1.77Z"/><path class="cls-14" d="M612,612.18c-10.54,0-21.08.14-31.61.21-6.18-.07-12.36-.21-18.54-.19-14.38,0-28.77.14-43.15.22l-4.95-.06-3.16.6h-8.94l-17,0q0,141,0,0l-8.82-.05-7.4,18.79-1.26,3.16-5.95-1.71c-1-.79-1.86-1.91-3-2.33-9.1-3.4-18.11-7.2-27.44-9.83-8.29-2.33-17-3.32-25.45-4.9-14.65-1.83-29,.24-43.27,3.28l-3.49.8-71.44,17-41,2.34c-13-1.52-25.6-4.75-37.4-10.66L185.31,612l-5.08.27-1.76,0-16.1.69q0,67.85,0,0h-17l-5.59-.6-5,.06-60.88,0-71.77-.14c.15,2.42.19,4.85.47,7.25,5.21,45.92,17,90,37.49,131.54,9.13,18.49,19.22,36.46,32.15,52.66.57.91,1.07,1.86,1.71,2.72a347.68,347.68,0,0,0,41,45.91c6.4,6,13.18,11.51,19.78,17.25l10.47,8.48,16.26,11.72,18,12L207,917.32c.07-.57.15-1.13.23-1.7-.09.57-.17,1.13-.23,1.7l36.46,17.26,41,15.51c7.66,2.44,15.39,4.71,23,7.37,21,7.37,41.57,4.67,61.89-2.89L410,940.05l36.61-16.81L466,912.54c1-.59,2-1.17,3-1.79l16.61-10.39,16.15-11.22,9.84-7.43,8.09-6.51c7.09-6.21,14.4-12.18,21.22-18.68a323.58,323.58,0,0,0,40.66-46.21c2.59-3.49,5.3-6.9,7.77-10.47a387.42,387.42,0,0,0,60.78-141.73c3.2-15.13,4.93-30.58,7.33-45.88C642.31,612.21,627.17,612.16,612,612.18ZM261.15,657.5c5.45-.81,10.9-1.75,16.37-2.32a4.5,4.5,0,0,1,3.33,1.94c2.73,4.16,5.2,8.49,7.76,12.76q11.29,19.37,22.59,38.75,15.43,26.36,30.91,52.69h.36l10.8-17c-5.47-9.14-11-18.24-16.4-27.42q-18.77-31.95-37.43-64c-.41-.7-.75-1.43-1.36-2.63l4.23-1c5-1.82,10-3.74,15.15-5.32.73-.23,2.36.93,2.9,1.84q14.69,24.82,29.19,49.75h0l16.72,28.5,11.77-17a35.56,35.56,0,0,1-3.17-4q-11.51-19.46-22.91-39h0l-15.57-27.29,4-1.15c4.87-1.81,9.72-3.69,14.65-5.33a3.42,3.42,0,0,1,2.85,1.07,42.87,42.87,0,0,1,3.31,5l29.68,50.92,6-8.67,4.71-8.37L374.57,624.9l5.1-.84L397,620.84a5.48,5.48,0,0,1,.35-3.53,5.48,5.48,0,0,0-.35,3.53,15.24,15.24,0,0,1,2.37,2.5c5.32,9,10.57,18,15.84,27l1-.61L426,635.06c1-3.94,3.46-5.08,7.31-3.91,3.59,1.09,7.26,1.94,10.89,2.9,3.56.46,1.9,2.42,1.09,4-5.45,10.71-11,21.4-16.42,32.11Q414,699.24,399.18,728.32a14.21,14.21,0,0,0-.66,1.89c.3,3.27.48,6.55.94,9.79-.46-3.24-.65-6.52-.94-9.79l-28.45,55.52h0l-20.26,39.74c.35,1,.86,1.93,1.22,2.91-.35-1-.86-1.93-1.22-2.91l-21,40.22c-8.54-6.11-14.27-14.6-20.72-22.41-2.52-3.8-4.92-7.68-7.6-11.36-2.26-3.09-1.92-5.62.95-8,3.05-4.91,6-9.89,9.18-14.72,5.7-8.67,11.55-17.25,17.33-25.87l.56-1.87Q311.27,752.3,294,723.1c-3.79-6.44-7.52-12.92-11.27-19.38h0L260,664.5c-1.21-2.09-2.4-4.18-4-7Zm91.08,246.86c-1.07,2.14-2,4.35-3,6.53L345,921.42l-1.32,5a436.32,436.32,0,0,1-57.09-39.28l-42.17-42.37h0c-8.05-11.81-16.34-23.47-24.06-35.49-4.14-6.44-7.29-13.51-10.89-20.29-.34,1.14-.88,2.27-1.23,3.41.35-1.14.88-2.27,1.23-3.41-4.7-13.19-10-26.22-14-39.62-5.66-19.05-8.08-38.7-9-58.59-.85-17.46.29-34.77,1.9-52.09a42.63,42.63,0,0,1,1-4.74l4.41,3.38L207,645.41c.33-.81.79-1.62,1.13-2.43-.34.81-.8,1.62-1.13,2.43a78.72,78.72,0,0,0,38.22,11.4c2.55.52,3.32,2,3.15,4.62-.39,6.18-.57,12.38-.65,18.57-.06,4.42.19,8.85.29,13.28l.47,13.79,1.26,13,1.13,11.38,1.42,8.85,9.18,39.77c4.59,11.14,9.15,22.3,13.78,33.42.82,2,1.91,3.81,2.88,5.72a1.8,1.8,0,0,1,.38.62l.15.88c1.76-.07,2.25-.86,2.34-1.84-.09,1-.57,1.77-2.34,1.84l1.49,2.38q11.66,16.51,23.34,33a8.56,8.56,0,0,0,1.15,1.12c.36-2.11.66-4.24,1.06-6.34-.4,2.1-.69,4.23-1.06,6.34,10.9,10.74,21.69,21.61,32.78,32.15a117.76,117.76,0,0,0,13.39,10.38C352.67,901.11,353.26,902.29,352.22,904.37Zm92.63-190.6c.12.71.27,1.42.42,2.14C445.12,715.19,445,714.48,444.85,713.77Zm22.77-68.18c-1.27,3.55-2.33,7.18-3.48,10.78.3,2.21.83,4.41,1,6.62-.13-2.21-.66-4.41-1-6.62l-18.5,55.16-.65,1.2-.18.8h0q-11.33,33.27-22.65,66.55c-4.45,13.13-8.79,26.3-13.18,39.46l-22.46,65.91c-1.69,5-3.38,9.95-5.28,15.55l-11.85-5.49h0c-8.33-5.24-16.71-10.38-25-15.75-4.62-3-4.51-3.18-1.11-8,1.24-3.35,2.35-6.76,3.74-10,1.66-3.95,3.54-7.8,5.32-11.69h0c.56-1.05,1.17-2.08,1.67-3.16q6-12.68,11.89-25.38l7.32-17h0l6.39-13.1c2.44-5.5,4.82-11,7.33-16.48,3.29-7.19,6.68-14.33,10-21.49l4-9.82q10.51-22.76,21-45.52c.62-1.34,1.3-2.65,2-4l5.33-11,5.11-11.71,8.12-17.85c2.15-4.92,4.14-9.91,6.56-14.7.55-1.1,2.55-1.46,3.89-2.16l7.24,2.43h0l5.65,3C468,642.49,468.32,643.62,467.61,645.59Z"/><path class="cls-7" d="M404.59,666.65l-2.91,3.65L374.57,624.9l5.1-.84Z"/><path class="cls-15" d="M445,700.91l.53-1.14Z"/><path class="cls-16" d="M475.84,612.89q-3.7,9.39-7.4,18.79l-30.14-13-1.57-.37-1-.47-15.29-4-17-2.5-17.81-.19-4.07.1c-19,1.7-37.35,6.36-55.44,12.2-5,1.61-10.11,2.73-15.16,4.07l-37.09,6.77h0l-31.15-.76c-7-1.79-14.24-3.11-21.08-5.46-12.81-4.4-23.59-12.35-34-20.86,2.88-10.78,9.33-19.36,17.49-26.53,4.91-4.3,10.74-7.55,16.14-11.29,1.93-1.34,3.31-1,5.29.46,5.81,4.28,12,8.12,18,12.14q13.89,3.68,27.79,7.33c1.28.34,2.6.53,3.9.79l34.7-1.44c13.73-3.42,27.34-7.47,41.23-10,9.6-1.78,19.57-1.51,29.38-2.16l8.06.15,14.65,1.63,15.46,3.21,19.46,6.44a100.14,100.14,0,0,1,36.67,24.38A1,1,0,0,0,475.84,612.89Z"/><path class="cls-16" d="M453,636.65h0c-1.33.7-3.33,1.07-3.89,2.16-2.42,4.78-4.41,9.78-6.56,14.7l-8.12,17.85-5.11,11.71h0l-5.33,11c-.65,1.32-1.34,2.63-2,4q-10.52,22.75-21,45.52l-4,9.82c.13,1.13.32,2.26.47,3.39-.15-1.13-.34-2.26-.47-3.39-3.35,7.16-6.73,14.3-10,21.49-2.5,5.47-4.89,11-7.33,16.48l-6.39,13.1-7.32,17Q360,834.13,354,846.82c-.51,1.08-1.11,2.11-1.67,3.16-1.78,3.89-3.66,7.75-5.32,11.69-1.38,3.29-2.5,6.7-3.73,10.05l23.45,15.12h0l11.86,6.76L383.06,880h0l16.79-48.41c5.19-14.82,10.43-29.62,15.55-44.46,3.74-10.83,7.32-21.72,11-32.58-.24-1.48-.64-3-.83-4.44.19,1.48.58,3,.83,4.44l4.84-13.79,6.5-18.79,7.25-21,.53-1.14.48-1.5,8.16-23.49c.55-1.37,1.14-2.72,1.64-4.11q5.06-14.27,10.09-28.56l-5.65-3Z"/><path class="cls-16" d="M350.76,899.76a117.76,117.76,0,0,1-13.39-10.38c-11.09-10.54-21.87-21.41-32.78-32.15a8.56,8.56,0,0,1-1.15-1.12q-11.68-16.5-23.34-33h0l-1.49-2.38-.15-.88-.38-.62c-1-1.9-2.06-3.75-2.88-5.72-4.63-11.13-9.19-22.28-13.78-33.42l-9.18-39.77-27.77-27.66,27.77,27.66-1.42-8.85-1.13-11.38-1.26-13L248,693.28c-.11-4.43-.35-8.86-.29-13.28.08-6.19.26-12.39.65-18.57.16-2.6-.6-4.1-3.15-4.62A78.72,78.72,0,0,1,207,645.41l-13.15-8.06-.42,5.58-.86,12.19-.13,10.59-.13,9.59.07.09q0,1.82,0,3.64,0,1.45.06,2.89l3.17,37.33,6,30,8,24.38,11.24,25.21a23.25,23.25,0,0,0,.9,2.22c14.89,28.29,34.76,52.64,58.47,73.94A349.14,349.14,0,0,0,340,918.45l5,3,4.18-10.53c1-2.18,2-4.38,3-6.53S352.67,901.11,350.76,899.76Z"/><path class="cls-16" d="M408.37,702.3l.55-.89.27-.76h0l8.93-17L427.87,665l16.28-30.92c-3.63-1-7.3-1.81-10.89-2.9-3.85-1.17-6.28,0-7.31,3.92l-9.79,14.62-1,.6-9.11,14.58-1.51,1.77-2.91,3.65L397,678.67l-6,8.67-10.71,16.29L378,707.11l-11.77,17-3.67,6.82-6.76,9.66-2.58,3.74-10.8,17h-.36l-10.65,16-3,4.2-.56,1.87h0c-5.78,8.62-11.63,17.2-17.33,25.87-3.18,4.83-6.13,9.81-9.18,14.72a151.78,151.78,0,0,0,26.34,33.3l2.41-5.08,15.55-29.85L365.2,785h0l34.21-65.62c-.07-.25-.14-.51-.22-.76.08.25.15.51.22.76Z"/><path class="cls-17" d="M408.37,702.3l.55-.89Z"/></svg>