<?xml version="1.0" encoding="utf-8"?>
<!-- Generator: Adobe Illustrator 22.1.0, SVG Export Plug-In . SVG Version: 6.00 Build 0)  -->
<svg version="1.1" id="Layer_1" xmlns="http://www.w3.org/2000/svg" xmlns:xlink="http://www.w3.org/1999/xlink" x="0px" y="0px"
	 viewBox="0 0 500 500" style="enable-background:new 0 0 512 512;" xml:space="preserve">
<g>
	<path d="M424.8,31H87.2C56.2,31,31,56.2,31,87.2v337.5c0,31,25.2,56.2,56.2,56.2h337.5c31,0,56.2-25.2,56.2-56.2V87.2
		C481,56.2,455.8,31,424.8,31z M316,113.5c0-19.9,30-19.9,30,0v200.4c0,19.9-30,19.9-30,0V113.5z M241,105.9c0-19.9,30-19.9,30,0
		v217.5c0,19.9-30,19.9-30,0V105.9z M166,113.5c0-19.9,30-19.9,30,0v200.4c0,19.9-30,19.9-30,0V113.5z M91,143.5
		c0-19.9,30-19.9,30,0v134.9c0,19.9-30,19.9-30,0C91,278.4,91,143.5,91,143.5z M415.8,372.3c-73.1,63.3-242.8,65.7-319.5,0
		c-15.1-12.9,4.4-35.7,19.5-22.8c66.2,55.5,217.1,54.1,280.5,0C411.3,336.6,430.8,359.4,415.8,372.3L415.8,372.3z M421,278.4
		c0,19.9-30,19.9-30,0V143.5c0-19.9,30-19.9,30,0V278.4z"/>
</g>
</svg>
