<svg xmlns="http://www.w3.org/2000/svg" width="744.094" height="602.362"><defs><clipPath id="b"><path d="M9 155h594v482H9V155z"/></clipPath><clipPath id="a"><path d="M9.13 636.656h592.548V155.13H9.13v481.526z"/></clipPath></defs><g clip-path="url(#a)" transform="matrix(1.25 0 0 -1.25 -11.413 796.274)"><g clip-path="url(#b)"><path d="M601.678 579.64c-21.807-9.672-45.242-16.21-69.84-19.148 25.108 15.05 44.387 38.88 53.466 67.27-23.494-13.932-49.517-24.05-77.214-29.506-22.182 23.632-53.783 38.4-88.755 38.4-67.155 0-121.6-54.442-121.6-121.592 0-9.53 1.078-18.81 3.15-27.71-101.057 5.07-190.654 53.48-250.626 127.044-10.467-17.958-16.464-38.846-16.464-61.13 0-42.184 21.47-79.403 54.095-101.207-19.932.632-38.68 6.1-55.076 15.208-.01-.507-.01-1.016-.01-1.528 0-58.914 41.915-108.06 97.54-119.23-10.203-2.778-20.945-4.263-32.036-4.263-7.835 0-15.453.76-22.875 2.18 15.472-48.31 60.377-83.463 113.586-84.445-41.616-32.612-94.046-52.05-151.014-52.05-9.814 0-19.493.574-29.006 1.697C62.81 175.13 126.727 155 195.395 155c223.656 0 345.96 185.282 345.96 345.964 0 5.272-.118 10.516-.352 15.73 23.756 17.144 44.372 38.56 60.675 62.944" fill="#1aa0db"/></g></g></svg>